<?xml version="1.0" standalone="no"?>
<!DOCTYPE svg PUBLIC "-//W3C//DTD SVG 20010904//EN"
 "http://www.w3.org/TR/2001/REC-SVG-20010904/DTD/svg10.dtd">
<svg version="1.0" xmlns="http://www.w3.org/2000/svg"
 width="250.000000pt" height="257.000000pt" viewBox="0 0 250.000000 257.000000"
 preserveAspectRatio="xMidYMid meet">

<g transform="translate(0.000000,257.000000) scale(0.100000,-0.100000)"
fill="#000000" stroke="none">
<path d="M1095 2448 c-162 -18 -366 -94 -506 -189 -77 -52 -217 -185 -267
-253 -153 -209 -218 -407 -229 -698 -10 -252 31 -459 125 -642 163 -318 481
-550 827 -602 163 -25 400 -15 555 22 240 58 497 187 670 336 l50 43 0 677 0
677 -21 12 c-20 10 -36 -3 -185 -152 l-164 -164 0 -250 0 -251 -43 -85 c-122
-244 -354 -388 -627 -390 -161 -1 -320 45 -410 119 l-25 21 668 668 c467 468
667 674 667 689 0 26 -126 148 -222 216 -230 164 -533 233 -863 196z m478 -62
c110 -28 254 -93 348 -156 80 -54 173 -133 199 -170 l20 -28 -670 -673 c-369
-370 -670 -679 -670 -686 0 -32 169 -125 279 -155 146 -38 365 -20 500 43 152
70 292 204 363 349 l43 85 5 257 5 258 143 142 142 143 0 -657 0 -656 -52 -45
c-184 -155 -406 -260 -670 -318 -120 -26 -382 -37 -498 -20 -144 21 -323 93
-460 185 -130 87 -308 297 -366 433 -84 199 -98 274 -97 543 0 209 1 232 25
321 36 135 80 233 150 341 143 216 369 384 607 450 150 41 209 48 386 44 142
-3 186 -8 268 -30z"/>
<path d="M1165 2003 c-207 -25 -431 -173 -544 -361 -85 -142 -126 -341 -101
-493 14 -86 24 -109 48 -109 16 0 883 857 903 893 18 33 -5 54 -74 66 -60 10
-166 12 -232 4z m263 -46 c4 -3 -185 -201 -420 -439 -333 -336 -431 -430 -438
-418 -15 24 -23 135 -15 214 9 95 44 209 91 294 47 84 176 214 264 265 61 35
186 80 255 91 37 5 251 0 263 -7z"/>
</g>
</svg>
